<svg xmlns="http://www.w3.org/2000/svg" viewBox="0 0 1200 675" width="1200" height="675">
  <defs>
    <linearGradient id="bgGradient" x1="0%" y1="0%" x2="100%" y2="100%">
      <stop offset="0%" style="stop-color:#1a1b26;stop-opacity:1" />
      <stop offset="100%" style="stop-color:#24283b;stop-opacity:1" />
    </linearGradient>
    <linearGradient id="accentGradient" x1="0%" y1="0%" x2="100%" y2="0%">
      <stop offset="0%" style="stop-color:#26d97f;stop-opacity:1" />
      <stop offset="33%" style="stop-color:#cccc15;stop-opacity:1" />
      <stop offset="66%" style="stop-color:#f2991a;stop-opacity:1" />
      <stop offset="100%" style="stop-color:#ffddbb;stop-opacity:1" />
    </linearGradient>
    <linearGradient id="gridFade" x1="0%" y1="0%" x2="0%" y2="100%">
      <stop offset="0%" style="stop-color:#1a1b26;stop-opacity:0" />
      <stop offset="85%" style="stop-color:#1a1b26;stop-opacity:0" />
      <stop offset="100%" style="stop-color:#1a1b26;stop-opacity:1" />
    </linearGradient>
  </defs>

  <!-- Background -->
  <rect width="1200" height="675" fill="url(#bgGradient)"/>

  <!-- Subtle grid lines background -->
  <g opacity="0.06">
    <line x1="0" y1="0" x2="0" y2="675" stroke="#7aa2f7" stroke-width="1"/>
    <line x1="40" y1="0" x2="40" y2="675" stroke="#7aa2f7" stroke-width="1"/>
    <line x1="80" y1="0" x2="80" y2="675" stroke="#7aa2f7" stroke-width="1"/>
    <line x1="120" y1="0" x2="120" y2="675" stroke="#7aa2f7" stroke-width="1"/>
    <line x1="160" y1="0" x2="160" y2="675" stroke="#7aa2f7" stroke-width="1"/>
    <line x1="200" y1="0" x2="200" y2="675" stroke="#7aa2f7" stroke-width="1"/>
    <line x1="240" y1="0" x2="240" y2="675" stroke="#7aa2f7" stroke-width="1"/>
    <line x1="280" y1="0" x2="280" y2="675" stroke="#7aa2f7" stroke-width="1"/>
    <line x1="320" y1="0" x2="320" y2="675" stroke="#7aa2f7" stroke-width="1"/>
    <line x1="360" y1="0" x2="360" y2="675" stroke="#7aa2f7" stroke-width="1"/>
    <line x1="400" y1="0" x2="400" y2="675" stroke="#7aa2f7" stroke-width="1"/>
    <line x1="440" y1="0" x2="440" y2="675" stroke="#7aa2f7" stroke-width="1"/>
    <line x1="480" y1="0" x2="480" y2="675" stroke="#7aa2f7" stroke-width="1"/>
    <line x1="520" y1="0" x2="520" y2="675" stroke="#7aa2f7" stroke-width="1"/>
    <line x1="560" y1="0" x2="560" y2="675" stroke="#7aa2f7" stroke-width="1"/>
    <line x1="600" y1="0" x2="600" y2="675" stroke="#7aa2f7" stroke-width="1"/>
    <line x1="640" y1="0" x2="640" y2="675" stroke="#7aa2f7" stroke-width="1"/>
    <line x1="680" y1="0" x2="680" y2="675" stroke="#7aa2f7" stroke-width="1"/>
    <line x1="720" y1="0" x2="720" y2="675" stroke="#7aa2f7" stroke-width="1"/>
    <line x1="760" y1="0" x2="760" y2="675" stroke="#7aa2f7" stroke-width="1"/>
    <line x1="800" y1="0" x2="800" y2="675" stroke="#7aa2f7" stroke-width="1"/>
    <line x1="840" y1="0" x2="840" y2="675" stroke="#7aa2f7" stroke-width="1"/>
    <line x1="880" y1="0" x2="880" y2="675" stroke="#7aa2f7" stroke-width="1"/>
    <line x1="920" y1="0" x2="920" y2="675" stroke="#7aa2f7" stroke-width="1"/>
    <line x1="960" y1="0" x2="960" y2="675" stroke="#7aa2f7" stroke-width="1"/>
    <line x1="1000" y1="0" x2="1000" y2="675" stroke="#7aa2f7" stroke-width="1"/>
    <line x1="1040" y1="0" x2="1040" y2="675" stroke="#7aa2f7" stroke-width="1"/>
    <line x1="1080" y1="0" x2="1080" y2="675" stroke="#7aa2f7" stroke-width="1"/>
    <line x1="1120" y1="0" x2="1120" y2="675" stroke="#7aa2f7" stroke-width="1"/>
    <line x1="1160" y1="0" x2="1160" y2="675" stroke="#7aa2f7" stroke-width="1"/>
    <line x1="1200" y1="0" x2="1200" y2="675" stroke="#7aa2f7" stroke-width="1"/>
  </g>

  <!-- Accent bar (top-left) -->
  <rect x="50" y="50" width="160" height="4" fill="url(#accentGradient)" rx="2"/>

  <!-- Game of Life Grid - main visualization area -->
  <g transform="translate(200, 100)">
    <!-- Grid background -->
    <rect x="0" y="0" width="800" height="400" rx="8" fill="rgba(14, 14, 24, 0.8)" stroke="rgba(122, 162, 247, 0.15)" stroke-width="1"/>

    <!-- Grid lines -->
    <g opacity="0.08" stroke="#7aa2f7" stroke-width="0.5">
      <!-- Vertical lines every 25px -->
      <line x1="25" y1="0" x2="25" y2="400"/>
      <line x1="50" y1="0" x2="50" y2="400"/>
      <line x1="75" y1="0" x2="75" y2="400"/>
      <line x1="100" y1="0" x2="100" y2="400"/>
      <line x1="125" y1="0" x2="125" y2="400"/>
      <line x1="150" y1="0" x2="150" y2="400"/>
      <line x1="175" y1="0" x2="175" y2="400"/>
      <line x1="200" y1="0" x2="200" y2="400"/>
      <line x1="225" y1="0" x2="225" y2="400"/>
      <line x1="250" y1="0" x2="250" y2="400"/>
      <line x1="275" y1="0" x2="275" y2="400"/>
      <line x1="300" y1="0" x2="300" y2="400"/>
      <line x1="325" y1="0" x2="325" y2="400"/>
      <line x1="350" y1="0" x2="350" y2="400"/>
      <line x1="375" y1="0" x2="375" y2="400"/>
      <line x1="400" y1="0" x2="400" y2="400"/>
      <line x1="425" y1="0" x2="425" y2="400"/>
      <line x1="450" y1="0" x2="450" y2="400"/>
      <line x1="475" y1="0" x2="475" y2="400"/>
      <line x1="500" y1="0" x2="500" y2="400"/>
      <line x1="525" y1="0" x2="525" y2="400"/>
      <line x1="550" y1="0" x2="550" y2="400"/>
      <line x1="575" y1="0" x2="575" y2="400"/>
      <line x1="600" y1="0" x2="600" y2="400"/>
      <line x1="625" y1="0" x2="625" y2="400"/>
      <line x1="650" y1="0" x2="650" y2="400"/>
      <line x1="675" y1="0" x2="675" y2="400"/>
      <line x1="700" y1="0" x2="700" y2="400"/>
      <line x1="725" y1="0" x2="725" y2="400"/>
      <line x1="750" y1="0" x2="750" y2="400"/>
      <line x1="775" y1="0" x2="775" y2="400"/>
      <!-- Horizontal lines every 25px -->
      <line x1="0" y1="25" x2="800" y2="25"/>
      <line x1="0" y1="50" x2="800" y2="50"/>
      <line x1="0" y1="75" x2="800" y2="75"/>
      <line x1="0" y1="100" x2="800" y2="100"/>
      <line x1="0" y1="125" x2="800" y2="125"/>
      <line x1="0" y1="150" x2="800" y2="150"/>
      <line x1="0" y1="175" x2="800" y2="175"/>
      <line x1="0" y1="200" x2="800" y2="200"/>
      <line x1="0" y1="225" x2="800" y2="225"/>
      <line x1="0" y1="250" x2="800" y2="250"/>
      <line x1="0" y1="275" x2="800" y2="275"/>
      <line x1="0" y1="300" x2="800" y2="300"/>
      <line x1="0" y1="325" x2="800" y2="325"/>
      <line x1="0" y1="350" x2="800" y2="350"/>
      <line x1="0" y1="375" x2="800" y2="375"/>
    </g>

    <!-- ALIVE CELLS - Game of Life patterns -->

    <!-- Glider 1 (top-left area) - NEW cells (bright green) -->
    <rect x="76" y="51" width="23" height="23" rx="3" fill="#26d97f" opacity="0.95"/>
    <rect x="101" y="76" width="23" height="23" rx="3" fill="#26d97f" opacity="0.95"/>
    <rect x="51" y="101" width="23" height="23" rx="3" fill="#26d97f" opacity="0.95"/>
    <rect x="76" y="101" width="23" height="23" rx="3" fill="#26d97f" opacity="0.95"/>
    <rect x="101" y="101" width="23" height="23" rx="3" fill="#26d97f" opacity="0.95"/>

    <!-- Glider 2 (moving right) - YOUNG cells (yellow-green) -->
    <rect x="226" y="151" width="23" height="23" rx="3" fill="#cccc15" opacity="0.9"/>
    <rect x="251" y="176" width="23" height="23" rx="3" fill="#cccc15" opacity="0.9"/>
    <rect x="201" y="201" width="23" height="23" rx="3" fill="#cccc15" opacity="0.9"/>
    <rect x="226" y="201" width="23" height="23" rx="3" fill="#cccc15" opacity="0.9"/>
    <rect x="251" y="201" width="23" height="23" rx="3" fill="#cccc15" opacity="0.9"/>

    <!-- Block (still life, top-right) - ANCIENT cells (warm white) -->
    <rect x="626" y="51" width="23" height="23" rx="3" fill="#ffddbb" opacity="0.85"/>
    <rect x="651" y="51" width="23" height="23" rx="3" fill="#ffddbb" opacity="0.85"/>
    <rect x="626" y="76" width="23" height="23" rx="3" fill="#ffddbb" opacity="0.85"/>
    <rect x="651" y="76" width="23" height="23" rx="3" fill="#ffddbb" opacity="0.85"/>

    <!-- Beehive (still life) - ANCIENT cells -->
    <rect x="526" y="276" width="23" height="23" rx="3" fill="#ffddbb" opacity="0.85"/>
    <rect x="551" y="251" width="23" height="23" rx="3" fill="#ffddbb" opacity="0.85"/>
    <rect x="576" y="251" width="23" height="23" rx="3" fill="#ffddbb" opacity="0.85"/>
    <rect x="601" y="276" width="23" height="23" rx="3" fill="#ffddbb" opacity="0.85"/>
    <rect x="551" y="301" width="23" height="23" rx="3" fill="#ffddbb" opacity="0.85"/>
    <rect x="576" y="301" width="23" height="23" rx="3" fill="#ffddbb" opacity="0.85"/>

    <!-- Blinker (oscillator, horizontal phase) - MATURE cells (orange) -->
    <rect x="376" y="126" width="23" height="23" rx="3" fill="#f2991a" opacity="0.9"/>
    <rect x="401" y="126" width="23" height="23" rx="3" fill="#f2991a" opacity="0.9"/>
    <rect x="426" y="126" width="23" height="23" rx="3" fill="#f2991a" opacity="0.9"/>

    <!-- Toad (oscillator) - MATURE cells -->
    <rect x="351" y="276" width="23" height="23" rx="3" fill="#f2991a" opacity="0.9"/>
    <rect x="376" y="276" width="23" height="23" rx="3" fill="#f2991a" opacity="0.9"/>
    <rect x="401" y="276" width="23" height="23" rx="3" fill="#f2991a" opacity="0.9"/>
    <rect x="326" y="301" width="23" height="23" rx="3" fill="#f2991a" opacity="0.9"/>
    <rect x="351" y="301" width="23" height="23" rx="3" fill="#f2991a" opacity="0.9"/>
    <rect x="376" y="301" width="23" height="23" rx="3" fill="#f2991a" opacity="0.9"/>

    <!-- R-pentomino debris (scattered, right side) - mix of ages -->
    <rect x="676" y="176" width="23" height="23" rx="3" fill="#26d97f" opacity="0.95"/>
    <rect x="701" y="176" width="23" height="23" rx="3" fill="#26d97f" opacity="0.95"/>
    <rect x="726" y="176" width="23" height="23" rx="3" fill="#cccc15" opacity="0.9"/>
    <rect x="701" y="201" width="23" height="23" rx="3" fill="#26d97f" opacity="0.95"/>
    <rect x="726" y="201" width="23" height="23" rx="3" fill="#cccc15" opacity="0.9"/>
    <rect x="751" y="201" width="23" height="23" rx="3" fill="#26d97f" opacity="0.95"/>
    <rect x="676" y="226" width="23" height="23" rx="3" fill="#cccc15" opacity="0.9"/>
    <rect x="726" y="226" width="23" height="23" rx="3" fill="#f2991a" opacity="0.9"/>
    <rect x="751" y="226" width="23" height="23" rx="3" fill="#cccc15" opacity="0.9"/>

    <!-- Loaf (still life, bottom-left) - ANCIENT -->
    <rect x="76" y="251" width="23" height="23" rx="3" fill="#ffddbb" opacity="0.85"/>
    <rect x="101" y="226" width="23" height="23" rx="3" fill="#ffddbb" opacity="0.85"/>
    <rect x="126" y="226" width="23" height="23" rx="3" fill="#ffddbb" opacity="0.85"/>
    <rect x="151" y="251" width="23" height="23" rx="3" fill="#ffddbb" opacity="0.85"/>
    <rect x="126" y="276" width="23" height="23" rx="3" fill="#ffddbb" opacity="0.85"/>
    <rect x="101" y="276" width="23" height="23" rx="3" fill="#ffddbb" opacity="0.85"/>
    <rect x="126" y="301" width="23" height="23" rx="3" fill="#ffddbb" opacity="0.85"/>

    <!-- Scattered new cells (bottom area) -->
    <rect x="451" y="351" width="23" height="23" rx="3" fill="#26d97f" opacity="0.95"/>
    <rect x="476" y="351" width="23" height="23" rx="3" fill="#26d97f" opacity="0.95"/>
    <rect x="501" y="351" width="23" height="23" rx="3" fill="#26d97f" opacity="0.95"/>
    <rect x="476" y="326" width="23" height="23" rx="3" fill="#cccc15" opacity="0.9"/>

    <!-- Lightweight spaceship fragment (center) - mixed ages -->
    <rect x="376" y="201" width="23" height="23" rx="3" fill="#cccc15" opacity="0.9"/>
    <rect x="401" y="176" width="23" height="23" rx="3" fill="#26d97f" opacity="0.95"/>
    <rect x="426" y="201" width="23" height="23" rx="3" fill="#cccc15" opacity="0.9"/>
    <rect x="451" y="201" width="23" height="23" rx="3" fill="#26d97f" opacity="0.95"/>
    <rect x="401" y="226" width="23" height="23" rx="3" fill="#26d97f" opacity="0.95"/>
    <rect x="426" y="226" width="23" height="23" rx="3" fill="#26d97f" opacity="0.95"/>
    <rect x="451" y="226" width="23" height="23" rx="3" fill="#26d97f" opacity="0.95"/>
    <rect x="476" y="226" width="23" height="23" rx="3" fill="#26d97f" opacity="0.95"/>

    <!-- Cell glow effects for newest cells -->
    <circle cx="413" cy="188" r="18" fill="#26d97f" opacity="0.08"/>
    <circle cx="88" cy="63" r="18" fill="#26d97f" opacity="0.08"/>
    <circle cx="688" cy="188" r="18" fill="#26d97f" opacity="0.08"/>
  </g>

  <!-- Age Legend (right side of grid) -->
  <g transform="translate(1040, 130)">
    <text x="0" y="0" font-family="monospace" font-size="11" fill="rgba(255,255,255,0.4)" text-anchor="start">AGE</text>
    <rect x="0" y="12" width="14" height="14" rx="2" fill="#26d97f" opacity="0.95"/>
    <text x="20" y="23" font-family="monospace" font-size="11" fill="rgba(255,255,255,0.4)">new</text>
    <rect x="0" y="34" width="14" height="14" rx="2" fill="#cccc15" opacity="0.9"/>
    <text x="20" y="45" font-family="monospace" font-size="11" fill="rgba(255,255,255,0.4)">young</text>
    <rect x="0" y="56" width="14" height="14" rx="2" fill="#f2991a" opacity="0.9"/>
    <text x="20" y="67" font-family="monospace" font-size="11" fill="rgba(255,255,255,0.4)">mature</text>
    <rect x="0" y="78" width="14" height="14" rx="2" fill="#ffddbb" opacity="0.85"/>
    <text x="20" y="89" font-family="monospace" font-size="11" fill="rgba(255,255,255,0.4)">ancient</text>
  </g>

  <!-- Pipeline diagram (bottom-left corner, subtle) -->
  <g transform="translate(50, 530)" opacity="0.3">
    <rect x="0" y="0" width="90" height="28" rx="4" fill="none" stroke="#7aa2f7" stroke-width="1"/>
    <text x="45" y="18" font-family="monospace" font-size="10" fill="#7aa2f7" text-anchor="middle">Buffer A</text>
    <line x1="95" y1="14" x2="120" y2="14" stroke="#7aa2f7" stroke-width="1"/>
    <polygon points="118,10 125,14 118,18" fill="#7aa2f7"/>
    <rect x="128" y="0" width="100" height="28" rx="4" fill="none" stroke="#9ece6a" stroke-width="1"/>
    <text x="178" y="18" font-family="monospace" font-size="10" fill="#9ece6a" text-anchor="middle">Compute</text>
    <line x1="233" y1="14" x2="258" y2="14" stroke="#9ece6a" stroke-width="1"/>
    <polygon points="256,10 263,14 256,18" fill="#9ece6a"/>
    <rect x="266" y="0" width="90" height="28" rx="4" fill="none" stroke="#7aa2f7" stroke-width="1"/>
    <text x="311" y="18" font-family="monospace" font-size="10" fill="#7aa2f7" text-anchor="middle">Buffer B</text>
    <line x1="361" y1="14" x2="386" y2="14" stroke="#7aa2f7" stroke-width="1"/>
    <polygon points="384,10 391,14 384,18" fill="#7aa2f7"/>
    <rect x="394" y="0" width="80" height="28" rx="4" fill="none" stroke="#bb9af7" stroke-width="1"/>
    <text x="434" y="18" font-family="monospace" font-size="10" fill="#bb9af7" text-anchor="middle">Render</text>
    <line x1="479" y1="14" x2="504" y2="14" stroke="#bb9af7" stroke-width="1"/>
    <polygon points="502,10 509,14 502,18" fill="#bb9af7"/>
    <rect x="512" y="0" width="80" height="28" rx="4" fill="none" stroke="#ff9e64" stroke-width="1"/>
    <text x="552" y="18" font-family="monospace" font-size="10" fill="#ff9e64" text-anchor="middle">Canvas</text>
  </g>

  <!-- Title area -->
  <text x="600" y="590" font-family="Arial, 'Noto Sans TC', sans-serif" font-size="36" font-weight="bold"
        fill="#c0caf5" text-anchor="middle">
    用 Rust + WebGPU 在瀏覽器跑 Game of Life
  </text>
  <text x="600" y="620" font-family="Arial, sans-serif" font-size="18"
        fill="rgba(192, 202, 245, 0.5)" text-anchor="middle">
    Conway's Game of Life on GPU with wgpu + WASM
  </text>

  <!-- Tech tags -->
  <g transform="translate(600, 650)">
    <g transform="translate(-120, 0)">
      <rect x="-35" y="-14" width="70" height="28" rx="6"
            fill="rgba(255, 158, 100, 0.15)" stroke="#ff9e64" stroke-width="1.5"/>
      <text x="0" y="4" font-family="monospace" font-size="13"
            fill="#ff9e64" text-anchor="middle">Rust</text>
    </g>
    <g transform="translate(0, 0)">
      <rect x="-45" y="-14" width="90" height="28" rx="6"
            fill="rgba(122, 162, 247, 0.15)" stroke="#7aa2f7" stroke-width="1.5"/>
      <text x="0" y="4" font-family="monospace" font-size="13"
            fill="#7aa2f7" text-anchor="middle">WebGPU</text>
    </g>
    <g transform="translate(120, 0)">
      <rect x="-35" y="-14" width="70" height="28" rx="6"
            fill="rgba(158, 206, 106, 0.15)" stroke="#9ece6a" stroke-width="1.5"/>
      <text x="0" y="4" font-family="monospace" font-size="13"
            fill="#9ece6a" text-anchor="middle">WASM</text>
    </g>
  </g>

  <!-- Branding -->
  <text x="1160" y="645" font-family="Arial, sans-serif" font-size="14"
        fill="rgba(255, 255, 255, 0.3)" text-anchor="end">
    blog.simplypatrick.com
  </text>
</svg>